<?xml version="1.0" standalone="no"?><!DOCTYPE svg PUBLIC "-//W3C//DTD SVG 1.1//EN" "http://www.w3.org/Graphics/SVG/1.1/DTD/svg11.dtd"><svg t="1489139201310" class="icon" style="" viewBox="0 0 1024 1024" version="1.1" xmlns="http://www.w3.org/2000/svg" p-id="3761" xmlns:xlink="http://www.w3.org/1999/xlink" width="10" height="10"><defs><style type="text/css"></style></defs><path d="M938.313455 895.650797 938.313455 895.650797c-11.30344 0-20.466124-9.162684-20.466124-20.466124L917.847332 411.152151c0-203.456808-164.933423-368.390231-368.390231-368.390231l-76.400041 0c-203.456808 0-368.390231 164.933423-368.390231 368.390231l0 464.032522c0 11.30344-9.162684 20.466124-20.466124 20.466124l0 0c-11.30344 0-20.466124-9.162684-20.466124-20.466124L63.73458 411.152151c0-55.027268 10.871605-108.518552 32.31294-158.988014 20.686135-48.690956 50.262754-92.466971 87.908142-130.113383s81.422428-67.223031 130.113383-87.908142C364.538507 12.701277 418.029792 1.829671 473.058083 1.829671l76.400041 0c55.027268 0 108.519576 10.871605 158.988014 32.31294 48.690956 20.685111 92.466971 50.262754 130.113383 87.908142 37.645388 37.646412 67.222007 81.422428 87.907119 130.113383 21.441335 50.469462 32.31294 103.960747 32.31294 158.988014l0 464.032522C958.779579 886.488113 949.616896 895.650797 938.313455 895.650797z" p-id="3762" fill="#ffffff"></path><path d="M32.133861 874.66688 32.133861 874.66688c-14.848173 0-26.996864-12.148691-26.996864-26.996864L5.136997 680.639838c0-14.848173 12.148691-26.996864 26.996864-26.996864l0 0c14.848173 0 26.996864 12.148691 26.996864 26.996864l0 167.030178C59.130725 862.518189 46.982034 874.66688 32.133861 874.66688z" p-id="3763" fill="#ffffff"></path><path d="M990.892975 874.66688 990.892975 874.66688c-14.848173 0-26.996864-12.148691-26.996864-26.996864L963.89611 680.639838c0-14.848173 12.148691-26.996864 26.996864-26.996864l0 0c14.848173 0 26.996864 12.148691 26.996864 26.996864l0 167.030178C1017.888815 862.518189 1005.741148 874.66688 990.892975 874.66688z" p-id="3764" fill="#ffffff"></path><path d="M197.162452 1003.016083 197.162452 1003.016083c-48.215118 0-87.663572-39.448454-87.663572-87.663572L109.49888 660.208507c0-48.215118 39.448454-87.663572 87.663572-87.663572l0 0c48.215118 0 87.663572 39.448454 87.663572 87.663572l0 255.144004C284.825001 963.567629 245.37757 1003.016083 197.162452 1003.016083z" p-id="3765" fill="#ffffff"></path><path d="M825.306682 1003.016083 825.306682 1003.016083c-48.215118 0-87.663572-39.448454-87.663572-87.663572L737.64311 660.208507c0-48.215118 39.448454-87.663572 87.663572-87.663572l0 0c48.215118 0 87.663572 39.448454 87.663572 87.663572l0 255.144004C912.970254 963.567629 873.5218 1003.016083 825.306682 1003.016083z" p-id="3766" fill="#ffffff"></path></svg>