<?xml version="1.0" standalone="no"?><!DOCTYPE svg PUBLIC "-//W3C//DTD SVG 1.1//EN" "http://www.w3.org/Graphics/SVG/1.1/DTD/svg11.dtd"><svg t="1504773995534" class="icon" style="" viewBox="0 0 1024 1024" version="1.1" xmlns="http://www.w3.org/2000/svg" p-id="1180" xmlns:xlink="http://www.w3.org/1999/xlink" width="32" height="32"><defs><style type="text/css"></style></defs><path d="M495.468488 688.409802c80.523965 0 146.035004-65.49876 146.035004-146.008398L641.503493 210.700793c0-80.539314-65.512063-146.062634-146.035004-146.062634-80.539314 0-146.062634 65.523319-146.062634 146.062634l0 331.700611C349.405855 622.911042 414.929174 688.409802 495.468488 688.409802zM380.105041 210.700793c0-63.611783 51.751664-115.363448 115.363448-115.363448 63.596434 0 115.335818 51.751664 115.335818 115.363448l0 331.700611c0 63.582107-51.740408 115.309212-115.335818 115.309212-63.611783 0-115.363448-51.727105-115.363448-115.309212L380.105041 210.700793z" p-id="1181" fill="#ffffff"></path><path d="M779.336698 481.021451c0-8.569166-6.891967-15.432481-15.429411-15.432481-8.540514 0-15.44783 6.863315-15.44783 15.432481 0 0.540306 0.028653 1.073448 0.082888 1.599428l0 42.829458c0 139.558499-113.527636 253.098415-253.073856 253.098415-139.551336 0-253.085112-113.539916-253.085112-253.098415l0-42.761919c0.059352-0.548492 0.093121-1.104147 0.093121-1.667989 0-8.568143-6.890944-15.431457-15.431457-15.431457-8.53642 0-15.443737 6.863315-15.443737 15.431457 0 0.538259 0.028653 1.069355 0.082888 1.593288l0 42.835597c0 75.81778 29.515221 147.08901 83.10986 200.685695 49.960879 49.961902 115.281583 78.987982 185.324846 82.695421l0 117.735471L360.780927 926.5659c-0.712221-0.100284-1.434675-0.169869-2.175549-0.169869-8.53642 0-15.443737 6.863315-15.443737 15.431457 0 8.505721 6.907317 15.428388 15.443737 15.428388 0.240477 0 0.474814-0.025583 0.712221-0.035816l0 0.045025 272.2895 0 0-0.01535c8.483208-0.065492 15.310707-6.957459 15.310707-15.422248 0-8.568143-6.890944-15.431457-15.431457-15.431457-0.740874 0-1.463328 0.069585-2.175549 0.169869L510.818081 926.5659 510.818081 808.831452c70.027913-3.708462 135.341454-32.733519 185.30438-82.695421 53.600779-53.599755 83.120093-124.870985 83.120093-200.685695l0-42.753733C779.300882 482.146065 779.336698 481.58734 779.336698 481.021451z" p-id="1182" fill="#ffffff"></path></svg>