<?xml version="1.0" standalone="no"?><!DOCTYPE svg PUBLIC "-//W3C//DTD SVG 1.1//EN" "http://www.w3.org/Graphics/SVG/1.1/DTD/svg11.dtd"><svg t="1494733816101" class="icon" style="" viewBox="0 0 1024 1024" version="1.1" xmlns="http://www.w3.org/2000/svg" p-id="9136" xmlns:xlink="http://www.w3.org/1999/xlink" width="50" height="50"><defs><style type="text/css"></style></defs><path d="M434.422134 707.925275 417.165098 707.925275c-21.203928 0-38.393425-17.189498-38.393425-38.393425L378.771673 354.468151c0-21.203928 17.189498-38.393425 38.393425-38.393425l17.257036 0c21.203928 0 38.393425 17.189498 38.393425 38.393425L472.815559 669.531849C472.815559 690.735777 455.626062 707.925275 434.422134 707.925275z" p-id="9137" fill="#ffffff"></path><path d="M606.835925 707.925275l-17.257036 0c-21.203928 0-38.393425-17.189498-38.393425-38.393425L551.185464 354.468151c0-21.203928 17.189498-38.393425 38.393425-38.393425l17.257036 0c21.203928 0 38.393425 17.189498 38.393425 38.393425L645.229351 669.531849C645.229351 690.735777 628.039853 707.925275 606.835925 707.925275z" p-id="9138" fill="#ffffff"></path><path d="M512 95.747691c229.522464 0 416.252309 186.729845 416.252309 416.252309S741.522464 928.251286 512 928.251286 95.747691 741.522464 95.747691 512 282.477536 95.747691 512 95.747691M512 65.290005c-246.710938 0-446.708971 199.999057-446.708971 446.708971 0 246.710938 199.999057 446.708971 446.708971 446.708971S958.708971 758.710938 958.708971 512C958.708971 265.289062 758.710938 65.290005 512 65.290005L512 65.290005z" p-id="9139" fill="#ffffff"></path></svg>