<?xml version="1.0" standalone="no"?><!DOCTYPE svg PUBLIC "-//W3C//DTD SVG 1.1//EN" "http://www.w3.org/Graphics/SVG/1.1/DTD/svg11.dtd"><svg t="1494731101145" class="icon" style="" viewBox="0 0 1024 1024" version="1.1" xmlns="http://www.w3.org/2000/svg" p-id="2738" xmlns:xlink="http://www.w3.org/1999/xlink" width="50" height="50"><defs><style type="text/css"></style></defs><path d="M450.228571 692.114286l227.714286-142.857143c6.4-5.142857 6.457143-14.857143 0.171429-20.057143L451.2 383.371429c-8.4-6.971429-21.142857-1.028571-21.2 9.885714l0 288.685714C429.885714 692.8 441.714286 698.914286 450.228571 692.114286L450.228571 692.114286z" p-id="2739" fill="#ffffff"></path><path d="M512.585143 107.373714c225.865143 0 409.6 183.734857 409.6 409.6s-183.734857 409.6-409.6 409.6-409.6-183.734857-409.6-409.6S286.72 107.373714 512.585143 107.373714M512.585143 78.116571c-242.249143 0-438.857143 196.608-438.857143 438.857143s196.608 438.857143 438.857143 438.857143 438.857143-196.608 438.857143-438.857143S754.834286 78.116571 512.585143 78.116571L512.585143 78.116571z" p-id="2740" fill="#ffffff"></path></svg>